<svg id="Layer_1" enable-background="new 0 0 510 510" height="512" viewBox="0 0 510 510" width="512" xmlns="http://www.w3.org/2000/svg"><g><path d="m510 90v-90h-90v30h-330v-30h-90v90h30v330h-30v90h90v-30h330v30h90v-90h-30v-330zm-60-60h30v30h-30zm-420 0h30v30h-30zm30 450h-30v-30h30zm420 0h-30v-30h30zm-30-60h-30v30h-330v-30h-30v-330h30v-30h330v30h30z"/><path d="m116.361 176.413h150v30h-150z" transform="matrix(.707 -.707 .707 .707 -79.301 191.377)"/><path d="m243.639 303.693h150.001v30h-150.001z" transform="matrix(.707 -.707 .707 .707 -132.022 318.655)"/><path d="m135 240.053h240v30h-240z" transform="matrix(.707 -.707 .707 .707 -105.662 255.015)"/></g></svg>