<svg id="Layer_1" enable-background="new 0 0 512.01 512.01" height="512" viewBox="0 0 512.01 512.01" width="512" xmlns="http://www.w3.org/2000/svg"><g><path d="m128.295 187.973c5.2-5.891 4.999-14.879-.634-20.512-5.857-5.858-15.355-5.858-21.213 0l-7.362 7.362v-60.287c0-14.612 11.888-26.5 26.5-26.5s26.5 11.888 26.5 26.5c0 8.284 6.716 15 15 15s15-6.716 15-15c0-31.154-25.346-56.5-56.5-56.5s-56.5 25.346-56.5 56.5v60.287l-7.362-7.362c-5.857-5.858-15.355-5.858-21.213 0-5.633 5.633-5.833 14.62-.634 20.512z"/><path d="m497.01 217.973h-17.026-447.796-17.188c-8.284 0-15 6.716-15 15s6.716 15 15 15h5.643c7.77 29.414 15.554 58.825 23.355 88.231 9.465 35.676 34.204 63.094 66.304 76.225l-13.866 17.094c-5.219 6.434-4.233 15.88 2.2 21.099 2.779 2.254 6.12 3.351 9.44 3.351 4.365 0 8.694-1.897 11.658-5.551l22.749-28.045c3.85.379 7.749.596 11.702.596h203.679c3.991 0 7.927-.221 11.813-.607l22.759 28.057c2.965 3.654 7.293 5.551 11.658 5.551 3.32 0 6.662-1.097 9.44-3.351 6.434-5.219 7.419-14.665 2.2-21.099l-13.896-17.13c32.067-13.149 56.773-40.562 66.223-76.223 8.427-31.809 16.129-60.785 23.442-88.197h5.505c8.284 0 15-6.716 15-15s-6.714-15.001-14.998-15.001z"/></g></svg>