<svg id="Capa_1" enable-background="new 0 0 512 512" height="512" viewBox="0 0 512 512" width="512" xmlns="http://www.w3.org/2000/svg"><g><path id="XMLID_891_" d="m124.007 131.898c-2.5 0-4.527 2.027-4.527 4.527v28.779h94.615v-28.78c0-2.5-2.026-4.526-4.526-4.526z"/><path id="XMLID_890_" d="m302.432 131.898c-2.5 0-4.527 2.027-4.527 4.527v28.779h94.615v-28.779c0-2.5-2.026-4.526-4.526-4.526h-85.562z"/><path id="XMLID_889_" d="m89.18 164.906v-28.483c0-19.203 15.623-34.826 34.826-34.826h85.562c19.203 0 34.826 15.623 34.826 34.826v28.483h23.211v-28.483c0-19.203 15.623-34.826 34.826-34.826h85.562c19.203 0 34.826 15.623 34.826 34.826v28.483h24.115c4.704 0 9.298.477 13.74 1.381v-92.936c0-19.998-16.212-36.21-36.209-36.21h-336.93c-19.998 0-36.209 16.212-36.209 36.21v92.936c4.441-.903 9.036-1.381 13.74-1.381z"/><path id="XMLID_888_" d="m493.227 258.811h-474.454c-10.368 0-18.773 8.405-18.773 18.773v123.045c0 10.368 8.405 18.773 18.773 18.773h474.454c10.368 0 18.773-8.405 18.773-18.773v-123.045c0-10.368-8.405-18.773-18.773-18.773z"/><path id="XMLID_887_" d="m446.934 195.206h-381.869c-19.504 0-35.612 14.5-38.158 33.306h458.185c-2.546-18.806-18.654-33.306-38.158-33.306z"/><path id="XMLID_886_" d="m18.762 449.701v10.009c0 8.367 6.783 15.15 15.15 15.15s15.15-6.783 15.15-15.15v-10.008h-30.289c-.004-.001-.007-.001-.011-.001z"/><path id="XMLID_885_" d="m462.938 449.701v10.008c0 8.367 6.783 15.15 15.15 15.15s15.15-6.783 15.15-15.15v-10.009c-.004 0-.007 0-.011 0h-30.289z"/></g></svg>