<svg id="Capa_1" enable-background="new 0 0 511 511" height="512" viewBox="0 0 511 511" width="512" xmlns="http://www.w3.org/2000/svg"><path d="m445.5 100h-95v294.756c.35 12.143-4.241 24.14-13.205 33.089l-83.285 83.155h191.49c8.284 0 15-6.716 15-15v-381c0-8.285-6.716-15-15-15z"/><path d="m190.5 441v54.844c0 6.065 3.652 11.533 9.254 13.856 1.858.771 3.808 1.145 5.742 1.145 3.899 0 7.733-1.521 10.602-4.386l65.562-65.459z"/><path d="m185.5 140c-25.089 0-45.5 20.411-45.5 45.5 0 10.914 7.974 32.037 20.809 55.124 9.931 17.864 19.061 30.371 24.691 36.801 5.63-6.43 14.76-18.937 24.691-36.801 12.836-23.087 20.809-44.21 20.809-55.124 0-25.088-20.411-45.5-45.5-45.5zm.001 60.5c-8.262 0-15-6.738-15-15s6.738-15 15-15c8.261 0 15 6.738 15 15s-6.739 15-15 15z"/><path d="m320.5 396v-381c0-8.284-6.716-15-15-15h-240c-8.284 0-15 6.716-15 15v381c0 8.284 6.716 15 15 15h240c8.284 0 15-6.715 15-15zm-87.28-135.184c-29.16 50.184-42.644 50.184-47.72 50.184s-18.56 0-47.719-50.184c-8.353-14.375-27.781-50.49-27.781-75.316 0-41.63 33.869-75.5 75.5-75.5s75.5 33.87 75.5 75.5c0 24.826-19.427 60.941-27.78 75.316z"/></svg>