<svg height="512" viewBox="0 0 512 512" width="512" xmlns="http://www.w3.org/2000/svg"><g id="Solid"><path d="m96 384h32v96h-32z"/><path d="m272 408c-5.534 0-16 5.016-16 24 0 11.268-5.941 17.252-10.279 21.622-3.967 4-5.72 5.957-5.72 10.609-.001 10.92 11.592 15.769 15.999 15.769h32c4.406 0 16-4.849 16-15.769 0-4.652-1.754-6.614-5.72-10.609-4.34-4.37-10.28-10.354-10.28-21.622 0-8.3-3.345-24-16-24z"/><path d="m152 280a8 8 0 0 1 3.207.671l108.181 47.329h.612v.268l8 3.5v-22.536l-120-52.5-120 52.5v22.536l116.793-51.1a8 8 0 0 1 3.207-.668z"/><path d="m345.198 384.173 21.35-31.57-13.254-8.963-21.35 31.569-2.337 17.735z"/><path d="m352 104h28.686l-28.686-28.686z"/><path d="m474.107 193.56a8 8 0 1 0 -13.253-8.964l-14.428 21.333 11.013 12.277z"/><path d="m176 400h32v24h-32z"/><path d="m437.187 219.59-74.93 110.796 13.254 8.964 72.689-107.483z"/><path d="m309.633 442.35c3.179 3.2 7.2 7.276 9.168 13.65h73.199v-112.471l-34.606 51.171a7.986 7.986 0 0 1 -2.7 2.49l-31.18 17.544a8 8 0 0 1 -11.854-8.016l4.673-35.471a8 8 0 0 1 1.3-3.436l74.367-109.965v-137.846h-48a8 8 0 0 1 -8-8v-48h-208v32a8 8 0 0 0 16 0v-16h16v16a24 24 0 0 1 -48 0v-32h-24v203.268l60.793-26.6a8 8 0 0 1 6.414 0l128 56a8 8 0 0 1 4.793 7.332v40a8 8 0 0 1 -11.207 7.329l-12.793-5.597v38.268h-16v-45.268l-96-42-96 42v141.268h24v-104a8 8 0 0 1 8-8h48a8 8 0 0 1 8 8v104h84.423a29.884 29.884 0 0 1 -4.423-15.769c0-11.441 5.991-17.475 10.365-21.881 3.907-3.936 5.635-5.865 5.635-10.35 0-19.878 10.992-40 32-40s32 20.122 32 40c0 4.485 1.726 6.414 5.633 10.35zm-189.633-90.35h-16v-16h16zm104 80a8 8 0 0 1 -8 8h-48a8 8 0 0 1 -8-8v-40a8 8 0 0 1 8-8h48a8 8 0 0 1 8 8zm104-144h-24v-16h24zm-160-144h192v16h-192zm-32 0h16v16h-16zm-16 32h240v16h-240zm0 48v-16h240v16zm120 32v-16h120v16z"/><path d="m468.452 230.483-9.239 13.661 11.013 12.277-32.354 47.841 13.253 8.963 35.854-53.015a8 8 0 0 0 -.672-9.823z"/><path d="m144 16a32.036 32.036 0 0 0 -32 32h16a16 16 0 0 1 32 0h16a32.036 32.036 0 0 0 -32-32z"/></g></svg>