<?xml version="1.0" encoding="iso-8859-1"?>
<!-- Generator: Adobe Illustrator 19.0.0, SVG Export Plug-In . SVG Version: 6.00 Build 0)  -->
<svg version="1.1" id="Capa_1" xmlns="http://www.w3.org/2000/svg" xmlns:xlink="http://www.w3.org/1999/xlink" x="0px" y="0px"
	 viewBox="0 0 512 512" style="enable-background:new 0 0 512 512;" xml:space="preserve">
<g>
	<g>
		<path d="M503.65,205.829c-7.445-11.263-18.838-18.898-32.094-21.493c-13.247-2.595-26.674,0.18-37.816,7.806l-81.874,55.992
			c2.004,4.87,3.377,10.06,3.998,15.471c0.271,2.255,0.401,4.539,0.401,6.864v0.2c0,0.491-0.01,0.982-0.03,1.473
			c0,0.1,0,0.19-0.01,0.291c-0.1,3.397-0.501,6.714-1.172,9.94c-0.661,3.226-1.583,6.353-2.756,9.369
			c-8.547,22.044-29.99,37.716-55.02,37.716h-74.69v-30.06h74.69c12.645,0,23.417-8.146,27.335-19.469
			c1.022-1.884,1.593-4.028,1.593-6.313c0-0.441-0.02-0.882-0.07-1.313c0.05-0.541,0.07-1.082,0.06-1.633
			c0.01-0.07,0.01-0.13,0.01-0.2c0-10.822-5.972-20.281-14.8-25.231c-4.178-2.355-8.998-3.697-14.128-3.697H249.37h-5.681
			l-3.196-5.749c-0.462-0.831-1.017-1.605-1.676-2.29c-0.006-0.006-0.011-0.012-0.017-0.017
			c-3.818-3.968-16.894-14.639-47.175-14.639c-37.074,0-50.842,14.629-51.413,15.261c-0.09,0.1-0.19,0.2-0.281,0.301
			c-0.531,0.571-1.062,1.132-1.603,1.683l-29.459,30.12l-0.942-1.814l-7.315-14.008l-6.373-12.214l-2.745-5.251L0,280.69
			l88.387,169.3l91.493-47.766l-9.469-18.136h166.354l154.219-110.021C512.999,258.365,518.56,228.385,503.65,205.829z"/>
	</g>
</g>
<g>
	<g>
		<path d="M341.295,62.011c-32.114,0-59.068,22.505-65.922,52.575c0,0.001,0,0.003-0.001,0.004H121.657l-0.003,49.218h30.06v-19.157
			h26.553v25.206h30.06v-25.206h67.046c6.856,30.078,33.808,52.581,65.921,52.581c37.285,0,67.616-30.331,67.616-67.616
			C408.91,92.342,378.579,62.011,341.295,62.011z M341.295,167.172c-20.701,0-37.545-16.844-37.545-37.555
			c0-20.702,16.844-37.545,37.545-37.545c20.712,0,37.555,16.844,37.555,37.545C378.85,150.328,362.006,167.172,341.295,167.172z"/>
	</g>
</g>
<g>
</g>
<g>
</g>
<g>
</g>
<g>
</g>
<g>
</g>
<g>
</g>
<g>
</g>
<g>
</g>
<g>
</g>
<g>
</g>
<g>
</g>
<g>
</g>
<g>
</g>
<g>
</g>
<g>
</g>
</svg>
